<svg xmlns="http://www.w3.org/2000/svg" viewBox="-10 -10 20 20">
<path d="M0,0 l1,0 l0.5,-0.866025 l-1,-1.22465e-16 l-0.5,-0.866025 l1,0 l1,0 l0.5,0.866025 l1,0 l0.5,-0.866025 l0.5,-0.866025 l-1,-1.22465e-16 l-0.5,0.866025 l-0.5,-0.866025 l0.5,-0.866025 l-0.5,-0.866025 l-1,-1.22465e-16 l-1,-1.22465e-16 l0.5,0.866025 l1,2.44929e-16 l-0.5,0.866025 l-1,-1.22465e-16 l-0.5,-0.866025 l-1,-1.22465e-16 l0.5,0.866025 l-0.5,0.866025 l-0.5,-0.866025 l-0.5,-0.866025 l0.5,-0.866025 l1,0 l0.5,-0.866025 l-1,-1.22465e-16 l-0.5,-0.866025 l1,0 l1,0 l0.5,0.866025 l1,0 l0.5,-0.866025 l-1,-1.22465e-16 l-0.5,-0.866025 l1,0 l1,0 l0.5,0.866025 l-0.5,0.866025 l0.5,0.866025 l0.5,0.866025 l0.5,-0.866025 l-0.5,-0.866025 l1,0 l0.5,0.866025" style="stroke: black; fill: none; stroke-width: 0.01pt"/>
</svg>
