<svg xmlns="http://www.w3.org/2000/svg"
viewBox="-11.5 -22.7846096908 24.0 24.7846096908" width="4in" height="4in">
<polyline fill="none" stroke="red" stroke-width="0.1" points="0.0,0.0 1.0,0.0 1.5,-0.866025403784 0.5,-0.866025403784 2.22044604925e-16,-1.73205080757 1.0,-1.73205080757 2.0,-1.73205080757 2.5,-0.866025403784 3.5,-0.866025403784 4.0,-1.73205080757 4.5,-2.59807621135 3.5,-2.59807621135 3.0,-1.73205080757 2.5,-2.59807621135 3.0,-3.46410161514 2.5,-4.33012701892 1.5,-4.33012701892 0.5,-4.33012701892 1.0,-3.46410161514 2.0,-3.46410161514 1.5,-2.59807621135 0.5,-2.59807621135 -2.22044604925e-16,-3.46410161514 -1.0,-3.46410161514 -0.5,-2.59807621135 -1.0,-1.73205080757 -1.5,-2.59807621135 -2.0,-3.46410161514 -1.5,-4.33012701892 -0.5,-4.33012701892 1.11022302463e-16,-5.19615242271 -1.0,-5.19615242271 -1.5,-6.06217782649 -0.5,-6.06217782649 0.5,-6.06217782649 1.0,-5.19615242271 2.0,-5.19615242271 2.5,-6.06217782649 1.5,-6.06217782649 1.0,-6.92820323028 2.0,-6.92820323028 3.0,-6.92820323028 3.5,-6.06217782649 3.0,-5.19615242271 3.5,-4.33012701892 4.0,-3.46410161514 4.5,-4.33012701892 4.0,-5.19615242271 5.0,-5.19615242271 5.5,-4.33012701892 6.5,-4.33012701892 7.0,-5.19615242271 6.0,-5.19615242271 5.5,-6.06217782649 6.5,-6.06217782649 7.5,-6.06217782649 8.0,-5.19615242271 9.0,-5.19615242271 9.5,-6.06217782649 10.0,-6.92820323028 9.0,-6.92820323028 8.5,-6.06217782649 8.0,-6.92820323028 8.5,-7.79422863406 9.5,-7.79422863406 10.0,-8.66025403784 10.5,-9.52627944163 9.5,-9.52627944163 9.0,-8.66025403784 8.5,-9.52627944163 9.0,-10.3923048454 8.5,-11.2583302492 7.5,-11.2583302492 6.5,-11.2583302492 7.0,-10.3923048454 8.0,-10.3923048454 7.5,-9.52627944163 6.5,-9.52627944163 6.0,-8.66025403784 6.5,-7.79422863406 7.0,-8.66025403784 8.0,-8.66025403784 7.5,-7.79422863406 7.0,-6.92820323028 6.0,-6.92820323028 5.5,-7.79422863406 4.5,-7.79422863406 5.0,-6.92820323028 4.5,-6.06217782649 4.0,-6.92820323028 3.5,-7.79422863406 4.0,-8.66025403784 5.0,-8.66025403784 5.5,-9.52627944163 6.0,-10.3923048454 5.0,-10.3923048454 4.5,-9.52627944163 4.0,-10.3923048454 4.5,-11.2583302492 4.0,-12.124355653 3.0,-12.124355653 3.5,-11.2583302492 3.0,-10.3923048454 2.5,-11.2583302492 2.0,-12.124355653 2.5,-12.9903810568 2.0,-13.8564064606 1.0,-13.8564064606 3.5527136788e-15,-13.8564064606 0.5,-12.9903810568 1.5,-12.9903810568 1.0,-12.124355653 3.10862446895e-15,-12.124355653 -0.5,-12.9903810568 -1.5,-12.9903810568 -2.5,-12.9903810568 -2.0,-12.124355653 -1.0,-12.124355653 -1.5,-11.2583302492 -2.5,-11.2583302492 -3.0,-10.3923048454 -2.5,-9.52627944163 -2.0,-8.66025403784 -1.5,-9.52627944163 -2.0,-10.3923048454 -1.0,-10.3923048454 -0.5,-9.52627944163 0.5,-9.52627944163 1.0,-10.3923048454 4.4408920985e-15,-10.3923048454 -0.5,-11.2583302492 0.5,-11.2583302492 1.5,-11.2583302492 2.0,-10.3923048454 1.5,-9.52627944163 2.0,-8.66025403784 2.5,-9.52627944163 3.5,-9.52627944163 3.0,-8.66025403784 2.5,-7.79422863406 1.5,-7.79422863406 1.0,-8.66025403784 4.66293670343e-15,-8.66025403784 -1.0,-8.66025403784 -0.5,-7.79422863406 0.5,-7.79422863406 4.21884749358e-15,-6.92820323028 -1.0,-6.92820323028 -1.5,-7.79422863406 -2.5,-7.79422863406 -2.0,-6.92820323028 -2.5,-6.06217782649 -3.0,-6.92820323028 -3.5,-7.79422863406 -3.0,-8.66025403784 -3.5,-9.52627944163 -4.5,-9.52627944163 -5.5,-9.52627944163 -5.0,-8.66025403784 -4.0,-8.66025403784 -4.5,-7.79422863406 -5.5,-7.79422863406 -6.0,-6.92820323028 -5.5,-6.06217782649 -5.0,-5.19615242271 -4.5,-6.06217782649 -5.0,-6.92820323028 -4.0,-6.92820323028 -3.5,-6.06217782649 -4.0,-5.19615242271 -3.5,-4.33012701892 -3.0,-5.19615242271 -2.0,-5.19615242271 -2.5,-4.33012701892 -3.0,-3.46410161514 -4.0,-3.46410161514 -4.5,-4.33012701892 -5.5,-4.33012701892 -5.0,-3.46410161514 -5.5,-2.59807621135 -6.0,-3.46410161514 -6.5,-4.33012701892 -6.0,-5.19615242271 -6.5,-6.06217782649 -7.5,-6.06217782649 -7.0,-5.19615242271 -7.5,-4.33012701892 -8.0,-5.19615242271 -8.5,-6.06217782649 -8.0,-6.92820323028 -7.0,-6.92820323028 -6.5,-7.79422863406 -6.0,-8.66025403784 -7.0,-8.66025403784 -7.5,-7.79422863406 -8.0,-8.66025403784 -7.5,-9.52627944163 -6.5,-9.52627944163 -6.0,-10.3923048454 -7.0,-10.3923048454 -7.5,-11.2583302492 -6.5,-11.2583302492 -5.5,-11.2583302492 -5.0,-10.3923048454 -4.0,-10.3923048454 -3.5,-11.2583302492 -3.0,-12.124355653 -4.0,-12.124355653 -4.5,-11.2583302492 -5.0,-12.124355653 -4.5,-12.9903810568 -5.0,-13.8564064606 -6.0,-13.8564064606 -7.0,-13.8564064606 -6.5,-12.9903810568 -5.5,-12.9903810568 -6.0,-12.124355653 -7.0,-12.124355653 -7.5,-12.9903810568 -8.5,-12.9903810568 -8.0,-12.124355653 -8.5,-11.2583302492 -9.0,-12.124355653 -9.5,-12.9903810568 -9.0,-13.8564064606 -8.0,-13.8564064606 -7.5,-14.7224318643 -8.5,-14.7224318643 -9.0,-15.5884572681 -8.0,-15.5884572681 -7.0,-15.5884572681 -6.5,-14.7224318643 -5.5,-14.7224318643 -5.0,-15.5884572681 -6.0,-15.5884572681 -6.5,-16.4544826719 -5.5,-16.4544826719 -4.5,-16.4544826719 -4.0,-15.5884572681 -4.5,-14.7224318643 -4.0,-13.8564064606 -3.5,-12.9903810568 -3.0,-13.8564064606 -3.5,-14.7224318643 -2.5,-14.7224318643 -2.0,-13.8564064606 -1.0,-13.8564064606 -0.5,-14.7224318643 -1.5,-14.7224318643 -2.0,-15.5884572681 -1.0,-15.5884572681 3.77475828373e-15,-15.5884572681 0.5,-14.7224318643 1.5,-14.7224318643 2.0,-15.5884572681 2.5,-16.4544826719 1.5,-16.4544826719 1.0,-15.5884572681 0.5,-16.4544826719 1.0,-17.3205080757 0.5,-18.1865334795 -0.5,-18.1865334795 -1.5,-18.1865334795 -1.0,-17.3205080757 4.21884749358e-15,-17.3205080757 -0.5,-16.4544826719 -1.5,-16.4544826719 -2.0,-17.3205080757 -3.0,-17.3205080757 -2.5,-16.4544826719 -3.0,-15.5884572681 -3.5,-16.4544826719 -4.0,-17.3205080757 -3.5,-18.1865334795 -2.5,-18.1865334795 -2.0,-19.0525588833 -3.0,-19.0525588833 -3.5,-19.918584287 -2.5,-19.918584287 -1.5,-19.918584287 -1.0,-19.0525588833 3.66373598126e-15,-19.0525588833 0.5,-19.918584287 -0.5,-19.918584287 -1.0,-20.7846096908 3.99680288865e-15,-20.7846096908 1.0,-20.7846096908 1.5,-19.918584287 1.0,-19.0525588833 1.5,-18.1865334795 2.0,-17.3205080757 2.5,-18.1865334795 2.0,-19.0525588833 3.0,-19.0525588833 3.5,-18.1865334795 3.0,-17.3205080757 3.5,-16.4544826719 4.0,-17.3205080757 5.0,-17.3205080757 4.5,-16.4544826719 4.0,-15.5884572681 3.0,-15.5884572681 2.5,-14.7224318643 3.0,-13.8564064606 3.5,-12.9903810568 4.0,-13.8564064606 3.5,-14.7224318643 4.5,-14.7224318643 5.0,-13.8564064606 4.5,-12.9903810568 5.0,-12.124355653 5.5,-11.2583302492 6.0,-12.124355653 5.5,-12.9903810568 6.5,-12.9903810568 7.0,-12.124355653 8.0,-12.124355653 8.5,-12.9903810568 9.0,-13.8564064606 8.0,-13.8564064606 7.5,-12.9903810568 7.0,-13.8564064606 7.5,-14.7224318643 7.0,-15.5884572681 6.0,-15.5884572681 6.5,-14.7224318643 6.0,-13.8564064606 5.5,-14.7224318643 5.0,-15.5884572681 5.5,-16.4544826719 6.5,-16.4544826719 7.0,-17.3205080757 6.0,-17.3205080757 5.5,-18.1865334795 6.5,-18.1865334795 7.5,-18.1865334795 8.0,-17.3205080757 7.5,-16.4544826719 8.0,-15.5884572681 8.5,-14.7224318643 9.0,-15.5884572681 8.5,-16.4544826719 9.5,-16.4544826719 10.0,-15.5884572681" opacity="0.8" />
<polyline fill="none" stroke="red" stroke-width="0.1" points="-10.5,-20.7846096908 -10.5,0.0 -10.4951847267,0.0980171403296 -10.4807852804,0.195090322016 -10.4569403357,0.290284677254 -10.4238795325,0.382683432365 -10.3819212643,0.471396736826 -10.3314696123,0.55557023302 -10.2730104534,0.634393284164 -10.2071067812,0.707106781187 -10.1343932842,0.773010453363 -10.055570233,0.831469612303 -9.97139673683,0.881921264348 -9.88268343237,0.923879532511 -9.79028467725,0.956940335732 -9.69509032202,0.980785280403 -9.59801714033,0.995184726672 -9.5,1.0 10.5,1.0 10.5980171403,0.995184726672 10.695090322,0.980785280403 10.7902846773,0.956940335732 10.8826834324,0.923879532511 10.9713967368,0.881921264348 11.055570233,0.831469612303 11.1343932842,0.773010453363 11.2071067812,0.707106781187 11.2730104534,0.634393284164 11.3314696123,0.55557023302 11.3819212643,0.471396736826 11.4238795325,0.382683432365 11.4569403357,0.290284677254 11.4807852804,0.195090322016 11.4951847267,0.0980171403296 11.5,0.0 11.5,-20.7846096908 11.4951847267,-20.8826268312 11.4807852804,-20.9797000128 11.4569403357,-21.0748943681 11.4238795325,-21.1672931232 11.3819212643,-21.2560064277 11.3314696123,-21.3401799238 11.2730104534,-21.419002975 11.2071067812,-21.491716472 11.1343932842,-21.5576201442 11.055570233,-21.6160793031 10.9713967368,-21.6665309552 10.8826834324,-21.7084892233 10.7902846773,-21.7415500266 10.695090322,-21.7653949712 10.5980171403,-21.7797944175 10.5,-21.7846096908 -9.5,-21.7846096908 -9.59801714033,-21.7797944175 -9.69509032202,-21.7653949712 -9.79028467725,-21.7415500266 -9.88268343237,-21.7084892233 -9.97139673683,-21.6665309552 -10.055570233,-21.6160793031 -10.1343932842,-21.5576201442 -10.2071067812,-21.491716472 -10.2730104534,-21.419002975 -10.3314696123,-21.3401799238 -10.3819212643,-21.2560064277 -10.4238795325,-21.1672931232 -10.4569403357,-21.0748943681 -10.4807852804,-20.9797000128 -10.4951847267,-20.8826268312 -10.5,-20.7846096908" opacity="0.8" />
<polyline fill="none" stroke="red" stroke-width="0.1" points="0.0,0.0 0.0,1.0" opacity="0.8" />
<polyline fill="none" stroke="red" stroke-width="0.1" points="10.0,-15.5884572681 11.5,-15.5884572681" opacity="0.8" />
</svg>
