<svg xmlns="http://www.w3.org/2000/svg"
viewBox="-2.0 -33.0 35.0 35.0" width="4in" height="4in">
<polyline fill="none" stroke="red" stroke-width="0.1" points="0.0,0.0 6.12323399574e-17,-1.0 1.0,-1.0 1.0,0.0 2.0,0.0 3.0,0.0 3.0,-1.0 2.0,-1.0 2.0,-2.0 3.0,-2.0 3.0,-3.0 2.0,-3.0 1.0,-3.0 1.0,-2.0 -2.22044604925e-16,-2.0 -1.60812264968e-16,-3.0 -9.95799250103e-17,-4.0 1.0,-4.0 1.0,-5.0 0.0,-5.0 6.12323399574e-17,-6.0 1.22464679915e-16,-7.0 1.0,-7.0 1.0,-6.0 2.0,-6.0 2.0,-7.0 3.0,-7.0 3.0,-6.0 3.0,-5.0 2.0,-5.0 2.0,-4.0 3.0,-4.0 4.0,-4.0 5.0,-4.0 5.0,-5.0 4.0,-5.0 4.0,-6.0 4.0,-7.0 5.0,-7.0 5.0,-6.0 6.0,-6.0 6.0,-7.0 7.0,-7.0 7.0,-6.0 7.0,-5.0 6.0,-5.0 6.0,-4.0 7.0,-4.0 7.0,-3.0 7.0,-2.0 6.0,-2.0 6.0,-3.0 5.0,-3.0 4.0,-3.0 4.0,-2.0 5.0,-2.0 5.0,-1.0 4.0,-1.0 4.0,1.11022302463e-16 5.0,1.11022302463e-16 6.0,1.11022302463e-16 6.0,-1.0 7.0,-1.0 7.0,1.11022302463e-16 8.0,1.11022302463e-16 9.0,1.11022302463e-16 9.0,-1.0 8.0,-1.0 8.0,-2.0 8.0,-3.0 9.0,-3.0 9.0,-2.0 10.0,-2.0 10.0,-3.0 11.0,-3.0 11.0,-2.0 11.0,-1.0 10.0,-1.0 10.0,1.11022302463e-16 11.0,1.11022302463e-16 12.0,1.11022302463e-16 12.0,-1.0 13.0,-1.0 13.0,1.11022302463e-16 14.0,1.11022302463e-16 15.0,1.11022302463e-16 15.0,-1.0 14.0,-1.0 14.0,-2.0 15.0,-2.0 15.0,-3.0 14.0,-3.0 13.0,-3.0 13.0,-2.0 12.0,-2.0 12.0,-3.0 12.0,-4.0 12.0,-5.0 13.0,-5.0 13.0,-4.0 14.0,-4.0 15.0,-4.0 15.0,-5.0 14.0,-5.0 14.0,-6.0 15.0,-6.0 15.0,-7.0 14.0,-7.0 13.0,-7.0 13.0,-6.0 12.0,-6.0 12.0,-7.0 11.0,-7.0 10.0,-7.0 10.0,-6.0 11.0,-6.0 11.0,-5.0 11.0,-4.0 10.0,-4.0 10.0,-5.0 9.0,-5.0 9.0,-4.0 8.0,-4.0 8.0,-5.0 8.0,-6.0 9.0,-6.0 9.0,-7.0 8.0,-7.0 8.0,-8.0 9.0,-8.0 9.0,-9.0 8.0,-9.0 8.0,-10.0 8.0,-11.0 9.0,-11.0 9.0,-10.0 10.0,-10.0 10.0,-11.0 11.0,-11.0 11.0,-10.0 11.0,-9.0 10.0,-9.0 10.0,-8.0 11.0,-8.0 12.0,-8.0 12.0,-9.0 13.0,-9.0 13.0,-8.0 14.0,-8.0 15.0,-8.0 15.0,-9.0 14.0,-9.0 14.0,-10.0 15.0,-10.0 15.0,-11.0 14.0,-11.0 13.0,-11.0 13.0,-10.0 12.0,-10.0 12.0,-11.0 12.0,-12.0 12.0,-13.0 13.0,-13.0 13.0,-12.0 14.0,-12.0 15.0,-12.0 15.0,-13.0 14.0,-13.0 14.0,-14.0 15.0,-14.0 15.0,-15.0 14.0,-15.0 13.0,-15.0 13.0,-14.0 12.0,-14.0 12.0,-15.0 11.0,-15.0 10.0,-15.0 10.0,-14.0 11.0,-14.0 11.0,-13.0 11.0,-12.0 10.0,-12.0 10.0,-13.0 9.0,-13.0 9.0,-12.0 8.0,-12.0 8.0,-13.0 8.0,-14.0 9.0,-14.0 9.0,-15.0 8.0,-15.0 7.0,-15.0 7.0,-14.0 6.0,-14.0 6.0,-15.0 5.0,-15.0 4.0,-15.0 4.0,-14.0 5.0,-14.0 5.0,-13.0 4.0,-13.0 4.0,-12.0 5.0,-12.0 6.0,-12.0 6.0,-13.0 7.0,-13.0 7.0,-12.0 7.0,-11.0 6.0,-11.0 6.0,-10.0 7.0,-10.0 7.0,-9.0 7.0,-8.0 6.0,-8.0 6.0,-9.0 5.0,-9.0 5.0,-8.0 4.0,-8.0 4.0,-9.0 4.0,-10.0 5.0,-10.0 5.0,-11.0 4.0,-11.0 3.0,-11.0 2.0,-11.0 2.0,-10.0 3.0,-10.0 3.0,-9.0 3.0,-8.0 2.0,-8.0 2.0,-9.0 1.0,-9.0 1.0,-8.0 -2.22044604925e-16,-8.0 -1.60812264968e-16,-9.0 -9.95799250103e-17,-10.0 1.0,-10.0 1.0,-11.0 0.0,-11.0 6.12323399574e-17,-12.0 1.22464679915e-16,-13.0 1.0,-13.0 1.0,-12.0 2.0,-12.0 3.0,-12.0 3.0,-13.0 2.0,-13.0 2.0,-14.0 3.0,-14.0 3.0,-15.0 2.0,-15.0 1.0,-15.0 1.0,-14.0 -2.22044604925e-16,-14.0 -1.60812264968e-16,-15.0 -9.95799250103e-17,-16.0 1.0,-16.0 1.0,-17.0 0.0,-17.0 6.12323399574e-17,-18.0 1.22464679915e-16,-19.0 1.0,-19.0 1.0,-18.0 2.0,-18.0 2.0,-19.0 3.0,-19.0 3.0,-18.0 3.0,-17.0 2.0,-17.0 2.0,-16.0 3.0,-16.0 4.0,-16.0 4.0,-17.0 5.0,-17.0 5.0,-16.0 6.0,-16.0 7.0,-16.0 7.0,-17.0 6.0,-17.0 6.0,-18.0 7.0,-18.0 7.0,-19.0 6.0,-19.0 5.0,-19.0 5.0,-18.0 4.0,-18.0 4.0,-19.0 4.0,-20.0 4.0,-21.0 5.0,-21.0 5.0,-20.0 6.0,-20.0 7.0,-20.0 7.0,-21.0 6.0,-21.0 6.0,-22.0 7.0,-22.0 7.0,-23.0 6.0,-23.0 5.0,-23.0 5.0,-22.0 4.0,-22.0 4.0,-23.0 3.0,-23.0 2.0,-23.0 2.0,-22.0 3.0,-22.0 3.0,-21.0 3.0,-20.0 2.0,-20.0 2.0,-21.0 1.0,-21.0 1.0,-20.0 -2.22044604925e-16,-20.0 -1.60812264968e-16,-21.0 -9.95799250103e-17,-22.0 1.0,-22.0 1.0,-23.0 0.0,-23.0 6.12323399574e-17,-24.0 1.22464679915e-16,-25.0 1.0,-25.0 1.0,-24.0 2.0,-24.0 3.0,-24.0 3.0,-25.0 2.0,-25.0 2.0,-26.0 3.0,-26.0 3.0,-27.0 2.0,-27.0 1.0,-27.0 1.0,-26.0 -2.22044604925e-16,-26.0 -1.60812264968e-16,-27.0 -9.95799250103e-17,-28.0 1.0,-28.0 1.0,-29.0 0.0,-29.0 6.12323399574e-17,-30.0 1.22464679915e-16,-31.0 1.0,-31.0 1.0,-30.0 2.0,-30.0 2.0,-31.0 3.0,-31.0 3.0,-30.0 3.0,-29.0 2.0,-29.0 2.0,-28.0 3.0,-28.0 4.0,-28.0 5.0,-28.0 5.0,-29.0 4.0,-29.0 4.0,-30.0 4.0,-31.0 5.0,-31.0 5.0,-30.0 6.0,-30.0 6.0,-31.0 7.0,-31.0 7.0,-30.0 7.0,-29.0 6.0,-29.0 6.0,-28.0 7.0,-28.0 7.0,-27.0 7.0,-26.0 6.0,-26.0 6.0,-27.0 5.0,-27.0 4.0,-27.0 4.0,-26.0 5.0,-26.0 5.0,-25.0 4.0,-25.0 4.0,-24.0 5.0,-24.0 6.0,-24.0 6.0,-25.0 7.0,-25.0 7.0,-24.0 8.0,-24.0 8.0,-25.0 9.0,-25.0 9.0,-24.0 10.0,-24.0 11.0,-24.0 11.0,-25.0 10.0,-25.0 10.0,-26.0 11.0,-26.0 11.0,-27.0 10.0,-27.0 9.0,-27.0 9.0,-26.0 8.0,-26.0 8.0,-27.0 8.0,-28.0 9.0,-28.0 9.0,-29.0 8.0,-29.0 8.0,-30.0 8.0,-31.0 9.0,-31.0 9.0,-30.0 10.0,-30.0 10.0,-31.0 11.0,-31.0 11.0,-30.0 11.0,-29.0 10.0,-29.0 10.0,-28.0 11.0,-28.0 12.0,-28.0 13.0,-28.0 13.0,-29.0 12.0,-29.0 12.0,-30.0 12.0,-31.0 13.0,-31.0 13.0,-30.0 14.0,-30.0 14.0,-31.0 15.0,-31.0 15.0,-30.0 15.0,-29.0 14.0,-29.0 14.0,-28.0 15.0,-28.0 15.0,-27.0 15.0,-26.0 14.0,-26.0 14.0,-27.0 13.0,-27.0 12.0,-27.0 12.0,-26.0 13.0,-26.0 13.0,-25.0 12.0,-25.0 12.0,-24.0 13.0,-24.0 14.0,-24.0 14.0,-25.0 15.0,-25.0 15.0,-24.0 15.0,-23.0 14.0,-23.0 14.0,-22.0 15.0,-22.0 15.0,-21.0 15.0,-20.0 14.0,-20.0 14.0,-21.0 13.0,-21.0 13.0,-20.0 12.0,-20.0 12.0,-21.0 12.0,-22.0 13.0,-22.0 13.0,-23.0 12.0,-23.0 11.0,-23.0 11.0,-22.0 10.0,-22.0 10.0,-23.0 9.0,-23.0 8.0,-23.0 8.0,-22.0 9.0,-22.0 9.0,-21.0 8.0,-21.0 8.0,-20.0 9.0,-20.0 10.0,-20.0 10.0,-21.0 11.0,-21.0 11.0,-20.0 11.0,-19.0 11.0,-18.0 10.0,-18.0 10.0,-19.0 9.0,-19.0 8.0,-19.0 8.0,-18.0 9.0,-18.0 9.0,-17.0 8.0,-17.0 8.0,-16.0 9.0,-16.0 10.0,-16.0 10.0,-17.0 11.0,-17.0 11.0,-16.0 12.0,-16.0 13.0,-16.0 13.0,-17.0 12.0,-17.0 12.0,-18.0 12.0,-19.0 13.0,-19.0 13.0,-18.0 14.0,-18.0 14.0,-19.0 15.0,-19.0 15.0,-18.0 15.0,-17.0 14.0,-17.0 14.0,-16.0 15.0,-16.0 16.0,-16.0 17.0,-16.0 17.0,-17.0 16.0,-17.0 16.0,-18.0 16.0,-19.0 17.0,-19.0 17.0,-18.0 18.0,-18.0 18.0,-19.0 19.0,-19.0 19.0,-18.0 19.0,-17.0 18.0,-17.0 18.0,-16.0 19.0,-16.0 20.0,-16.0 20.0,-17.0 21.0,-17.0 21.0,-16.0 22.0,-16.0 23.0,-16.0 23.0,-17.0 22.0,-17.0 22.0,-18.0 23.0,-18.0 23.0,-19.0 22.0,-19.0 21.0,-19.0 21.0,-18.0 20.0,-18.0 20.0,-19.0 20.0,-20.0 20.0,-21.0 21.0,-21.0 21.0,-20.0 22.0,-20.0 23.0,-20.0 23.0,-21.0 22.0,-21.0 22.0,-22.0 23.0,-22.0 23.0,-23.0 22.0,-23.0 21.0,-23.0 21.0,-22.0 20.0,-22.0 20.0,-23.0 19.0,-23.0 18.0,-23.0 18.0,-22.0 19.0,-22.0 19.0,-21.0 19.0,-20.0 18.0,-20.0 18.0,-21.0 17.0,-21.0 17.0,-20.0 16.0,-20.0 16.0,-21.0 16.0,-22.0 17.0,-22.0 17.0,-23.0 16.0,-23.0 16.0,-24.0 16.0,-25.0 17.0,-25.0 17.0,-24.0 18.0,-24.0 19.0,-24.0 19.0,-25.0 18.0,-25.0 18.0,-26.0 19.0,-26.0 19.0,-27.0 18.0,-27.0 17.0,-27.0 17.0,-26.0 16.0,-26.0 16.0,-27.0 16.0,-28.0 17.0,-28.0 17.0,-29.0 16.0,-29.0 16.0,-30.0 16.0,-31.0 17.0,-31.0 17.0,-30.0 18.0,-30.0 18.0,-31.0 19.0,-31.0 19.0,-30.0 19.0,-29.0 18.0,-29.0 18.0,-28.0 19.0,-28.0 20.0,-28.0 21.0,-28.0 21.0,-29.0 20.0,-29.0 20.0,-30.0 20.0,-31.0 21.0,-31.0 21.0,-30.0 22.0,-30.0 22.0,-31.0 23.0,-31.0 23.0,-30.0 23.0,-29.0 22.0,-29.0 22.0,-28.0 23.0,-28.0 23.0,-27.0 23.0,-26.0 22.0,-26.0 22.0,-27.0 21.0,-27.0 20.0,-27.0 20.0,-26.0 21.0,-26.0 21.0,-25.0 20.0,-25.0 20.0,-24.0 21.0,-24.0 22.0,-24.0 22.0,-25.0 23.0,-25.0 23.0,-24.0 24.0,-24.0 24.0,-25.0 25.0,-25.0 25.0,-24.0 26.0,-24.0 27.0,-24.0 27.0,-25.0 26.0,-25.0 26.0,-26.0 27.0,-26.0 27.0,-27.0 26.0,-27.0 25.0,-27.0 25.0,-26.0 24.0,-26.0 24.0,-27.0 24.0,-28.0 25.0,-28.0 25.0,-29.0 24.0,-29.0 24.0,-30.0 24.0,-31.0 25.0,-31.0 25.0,-30.0 26.0,-30.0 26.0,-31.0 27.0,-31.0 27.0,-30.0 27.0,-29.0 26.0,-29.0 26.0,-28.0 27.0,-28.0 28.0,-28.0 29.0,-28.0 29.0,-29.0 28.0,-29.0 28.0,-30.0 28.0,-31.0 29.0,-31.0 29.0,-30.0 30.0,-30.0 30.0,-31.0 31.0,-31.0 31.0,-30.0 31.0,-29.0 30.0,-29.0 30.0,-28.0 31.0,-28.0 31.0,-27.0 31.0,-26.0 30.0,-26.0 30.0,-27.0 29.0,-27.0 28.0,-27.0 28.0,-26.0 29.0,-26.0 29.0,-25.0 28.0,-25.0 28.0,-24.0 29.0,-24.0 30.0,-24.0 30.0,-25.0 31.0,-25.0 31.0,-24.0 31.0,-23.0 30.0,-23.0 30.0,-22.0 31.0,-22.0 31.0,-21.0 31.0,-20.0 30.0,-20.0 30.0,-21.0 29.0,-21.0 29.0,-20.0 28.0,-20.0 28.0,-21.0 28.0,-22.0 29.0,-22.0 29.0,-23.0 28.0,-23.0 27.0,-23.0 27.0,-22.0 26.0,-22.0 26.0,-23.0 25.0,-23.0 24.0,-23.0 24.0,-22.0 25.0,-22.0 25.0,-21.0 24.0,-21.0 24.0,-20.0 25.0,-20.0 26.0,-20.0 26.0,-21.0 27.0,-21.0 27.0,-20.0 27.0,-19.0 27.0,-18.0 26.0,-18.0 26.0,-19.0 25.0,-19.0 24.0,-19.0 24.0,-18.0 25.0,-18.0 25.0,-17.0 24.0,-17.0 24.0,-16.0 25.0,-16.0 26.0,-16.0 26.0,-17.0 27.0,-17.0 27.0,-16.0 28.0,-16.0 29.0,-16.0 29.0,-17.0 28.0,-17.0 28.0,-18.0 28.0,-19.0 29.0,-19.0 29.0,-18.0 30.0,-18.0 30.0,-19.0 31.0,-19.0 31.0,-18.0 31.0,-17.0 30.0,-17.0 30.0,-16.0 31.0,-16.0 31.0,-15.0 31.0,-14.0 30.0,-14.0 30.0,-15.0 29.0,-15.0 28.0,-15.0 28.0,-14.0 29.0,-14.0 29.0,-13.0 28.0,-13.0 28.0,-12.0 29.0,-12.0 30.0,-12.0 30.0,-13.0 31.0,-13.0 31.0,-12.0 31.0,-11.0 30.0,-11.0 30.0,-10.0 31.0,-10.0 31.0,-9.0 31.0,-8.0 30.0,-8.0 30.0,-9.0 29.0,-9.0 29.0,-8.0 28.0,-8.0 28.0,-9.0 28.0,-10.0 29.0,-10.0 29.0,-11.0 28.0,-11.0 27.0,-11.0 26.0,-11.0 26.0,-10.0 27.0,-10.0 27.0,-9.0 27.0,-8.0 26.0,-8.0 26.0,-9.0 25.0,-9.0 25.0,-8.0 24.0,-8.0 24.0,-9.0 24.0,-10.0 25.0,-10.0 25.0,-11.0 24.0,-11.0 24.0,-12.0 24.0,-13.0 25.0,-13.0 25.0,-12.0 26.0,-12.0 27.0,-12.0 27.0,-13.0 26.0,-13.0 26.0,-14.0 27.0,-14.0 27.0,-15.0 26.0,-15.0 25.0,-15.0 25.0,-14.0 24.0,-14.0 24.0,-15.0 23.0,-15.0 22.0,-15.0 22.0,-14.0 23.0,-14.0 23.0,-13.0 23.0,-12.0 22.0,-12.0 22.0,-13.0 21.0,-13.0 21.0,-12.0 20.0,-12.0 20.0,-13.0 20.0,-14.0 21.0,-14.0 21.0,-15.0 20.0,-15.0 19.0,-15.0 19.0,-14.0 18.0,-14.0 18.0,-15.0 17.0,-15.0 16.0,-15.0 16.0,-14.0 17.0,-14.0 17.0,-13.0 16.0,-13.0 16.0,-12.0 17.0,-12.0 18.0,-12.0 18.0,-13.0 19.0,-13.0 19.0,-12.0 19.0,-11.0 19.0,-10.0 18.0,-10.0 18.0,-11.0 17.0,-11.0 16.0,-11.0 16.0,-10.0 17.0,-10.0 17.0,-9.0 16.0,-9.0 16.0,-8.0 17.0,-8.0 18.0,-8.0 18.0,-9.0 19.0,-9.0 19.0,-8.0 20.0,-8.0 21.0,-8.0 21.0,-9.0 20.0,-9.0 20.0,-10.0 20.0,-11.0 21.0,-11.0 21.0,-10.0 22.0,-10.0 22.0,-11.0 23.0,-11.0 23.0,-10.0 23.0,-9.0 22.0,-9.0 22.0,-8.0 23.0,-8.0 23.0,-7.0 22.0,-7.0 22.0,-6.0 23.0,-6.0 23.0,-5.0 23.0,-4.0 22.0,-4.0 22.0,-5.0 21.0,-5.0 21.0,-4.0 20.0,-4.0 20.0,-5.0 20.0,-6.0 21.0,-6.0 21.0,-7.0 20.0,-7.0 19.0,-7.0 19.0,-6.0 18.0,-6.0 18.0,-7.0 17.0,-7.0 16.0,-7.0 16.0,-6.0 17.0,-6.0 17.0,-5.0 16.0,-5.0 16.0,-4.0 17.0,-4.0 18.0,-4.0 18.0,-5.0 19.0,-5.0 19.0,-4.0 19.0,-3.0 19.0,-2.0 18.0,-2.0 18.0,-3.0 17.0,-3.0 16.0,-3.0 16.0,-2.0 17.0,-2.0 17.0,-1.0 16.0,-1.0 16.0,1.11022302463e-16 17.0,1.11022302463e-16 18.0,1.11022302463e-16 18.0,-1.0 19.0,-1.0 19.0,1.11022302463e-16 20.0,1.11022302463e-16 21.0,1.11022302463e-16 21.0,-1.0 20.0,-1.0 20.0,-2.0 20.0,-3.0 21.0,-3.0 21.0,-2.0 22.0,-2.0 22.0,-3.0 23.0,-3.0 23.0,-2.0 23.0,-1.0 22.0,-1.0 22.0,1.11022302463e-16 23.0,1.11022302463e-16 24.0,1.11022302463e-16 24.0,-1.0 25.0,-1.0 25.0,1.11022302463e-16 26.0,1.11022302463e-16 27.0,1.11022302463e-16 27.0,-1.0 26.0,-1.0 26.0,-2.0 27.0,-2.0 27.0,-3.0 26.0,-3.0 25.0,-3.0 25.0,-2.0 24.0,-2.0 24.0,-3.0 24.0,-4.0 25.0,-4.0 25.0,-5.0 24.0,-5.0 24.0,-6.0 24.0,-7.0 25.0,-7.0 25.0,-6.0 26.0,-6.0 26.0,-7.0 27.0,-7.0 27.0,-6.0 27.0,-5.0 26.0,-5.0 26.0,-4.0 27.0,-4.0 28.0,-4.0 29.0,-4.0 29.0,-5.0 28.0,-5.0 28.0,-6.0 28.0,-7.0 29.0,-7.0 29.0,-6.0 30.0,-6.0 30.0,-7.0 31.0,-7.0 31.0,-6.0 31.0,-5.0 30.0,-5.0 30.0,-4.0 31.0,-4.0 31.0,-3.0 31.0,-2.0 30.0,-2.0 30.0,-3.0 29.0,-3.0 28.0,-3.0 28.0,-2.0 29.0,-2.0 29.0,-1.0 28.0,-1.0 28.0,1.11022302463e-16 29.0,1.11022302463e-16 30.0,1.11022302463e-16 30.0,-1.0 31.0,-1.0 31.0,1.11022302463e-16" opacity="0.8" />
<polyline fill="none" stroke="red" stroke-width="0.1" points="-1.0,-31.0 -1.0,1.11022302463e-16 -0.995184726672,0.0980171403296 -0.980785280403,0.195090322016 -0.956940335732,0.290284677254 -0.923879532511,0.382683432365 -0.881921264348,0.471396736826 -0.831469612303,0.55557023302 -0.773010453363,0.634393284164 -0.707106781187,0.707106781187 -0.634393284164,0.773010453363 -0.55557023302,0.831469612303 -0.471396736826,0.881921264348 -0.382683432365,0.923879532511 -0.290284677254,0.956940335732 -0.195090322016,0.980785280403 -0.0980171403296,0.995184726672 -2.22044604925e-16,1.0 31.0,1.0 31.0980171403,0.995184726672 31.195090322,0.980785280403 31.2902846773,0.956940335732 31.3826834324,0.923879532511 31.4713967368,0.881921264348 31.555570233,0.831469612303 31.6343932842,0.773010453363 31.7071067812,0.707106781187 31.7730104534,0.634393284164 31.8314696123,0.55557023302 31.8819212643,0.471396736826 31.9238795325,0.382683432365 31.9569403357,0.290284677254 31.9807852804,0.195090322016 31.9951847267,0.0980171403296 32.0,1.11022302463e-16 32.0,-31.0 31.9951847267,-31.0980171403 31.9807852804,-31.195090322 31.9569403357,-31.2902846773 31.9238795325,-31.3826834324 31.8819212643,-31.4713967368 31.8314696123,-31.555570233 31.7730104534,-31.6343932842 31.7071067812,-31.7071067812 31.6343932842,-31.7730104534 31.555570233,-31.8314696123 31.4713967368,-31.8819212643 31.3826834324,-31.9238795325 31.2902846773,-31.9569403357 31.195090322,-31.9807852804 31.0980171403,-31.9951847267 31.0,-32.0 -2.22044604925e-16,-32.0 -0.0980171403296,-31.9951847267 -0.195090322016,-31.9807852804 -0.290284677254,-31.9569403357 -0.382683432365,-31.9238795325 -0.471396736826,-31.8819212643 -0.55557023302,-31.8314696123 -0.634393284164,-31.7730104534 -0.707106781187,-31.7071067812 -0.773010453363,-31.6343932842 -0.831469612303,-31.555570233 -0.881921264348,-31.4713967368 -0.923879532511,-31.3826834324 -0.956940335732,-31.2902846773 -0.980785280403,-31.195090322 -0.995184726672,-31.0980171403 -1.0,-31.0" opacity="0.8" />
<polyline fill="none" stroke="red" stroke-width="0.1" points="0.0,0.0 -1.0,0.0" opacity="0.8" />
<polyline fill="none" stroke="red" stroke-width="0.1" points="31.0,1.11022302463e-16 32.0,1.11022302463e-16" opacity="0.8" />
</svg>
