<svg xmlns="http://www.w3.org/2000/svg"
viewBox="-2.0 -17.0 19.0 19.0" width="4in" height="4in">
<polyline fill="none" stroke="red" stroke-width="0.1" points="-1.0,0.0 0.0,0.0 1.0,0.0 1.0,-1.0 0.0,-1.0 6.12323399574e-17,-2.0 1.22464679915e-16,-3.0 1.0,-3.0 1.0,-2.0 2.0,-2.0 2.0,-3.0 3.0,-3.0 3.0,-2.0 3.0,-1.0 2.0,-1.0 2.0,1.11022302463e-16 3.0,1.11022302463e-16 4.0,1.11022302463e-16 4.0,-1.0 5.0,-1.0 5.0,1.11022302463e-16 6.0,1.11022302463e-16 7.0,1.11022302463e-16 7.0,-1.0 6.0,-1.0 6.0,-2.0 7.0,-2.0 7.0,-3.0 6.0,-3.0 5.0,-3.0 5.0,-2.0 4.0,-2.0 4.0,-3.0 4.0,-4.0 4.0,-5.0 5.0,-5.0 5.0,-4.0 6.0,-4.0 7.0,-4.0 7.0,-5.0 6.0,-5.0 6.0,-6.0 7.0,-6.0 7.0,-7.0 6.0,-7.0 5.0,-7.0 5.0,-6.0 4.0,-6.0 4.0,-7.0 3.0,-7.0 2.0,-7.0 2.0,-6.0 3.0,-6.0 3.0,-5.0 3.0,-4.0 2.0,-4.0 2.0,-5.0 1.0,-5.0 1.0,-4.0 -2.22044604925e-16,-4.0 -1.60812264968e-16,-5.0 -9.95799250103e-17,-6.0 1.0,-6.0 1.0,-7.0 0.0,-7.0 6.12323399574e-17,-8.0 1.22464679915e-16,-9.0 1.0,-9.0 1.0,-8.0 2.0,-8.0 3.0,-8.0 3.0,-9.0 2.0,-9.0 2.0,-10.0 3.0,-10.0 3.0,-11.0 2.0,-11.0 1.0,-11.0 1.0,-10.0 -2.22044604925e-16,-10.0 -1.60812264968e-16,-11.0 -9.95799250103e-17,-12.0 1.0,-12.0 1.0,-13.0 0.0,-13.0 6.12323399574e-17,-14.0 1.22464679915e-16,-15.0 1.0,-15.0 1.0,-14.0 2.0,-14.0 2.0,-15.0 3.0,-15.0 3.0,-14.0 3.0,-13.0 2.0,-13.0 2.0,-12.0 3.0,-12.0 4.0,-12.0 5.0,-12.0 5.0,-13.0 4.0,-13.0 4.0,-14.0 4.0,-15.0 5.0,-15.0 5.0,-14.0 6.0,-14.0 6.0,-15.0 7.0,-15.0 7.0,-14.0 7.0,-13.0 6.0,-13.0 6.0,-12.0 7.0,-12.0 7.0,-11.0 7.0,-10.0 6.0,-10.0 6.0,-11.0 5.0,-11.0 4.0,-11.0 4.0,-10.0 5.0,-10.0 5.0,-9.0 4.0,-9.0 4.0,-8.0 5.0,-8.0 6.0,-8.0 6.0,-9.0 7.0,-9.0 7.0,-8.0 8.0,-8.0 8.0,-9.0 9.0,-9.0 9.0,-8.0 10.0,-8.0 11.0,-8.0 11.0,-9.0 10.0,-9.0 10.0,-10.0 11.0,-10.0 11.0,-11.0 10.0,-11.0 9.0,-11.0 9.0,-10.0 8.0,-10.0 8.0,-11.0 8.0,-12.0 9.0,-12.0 9.0,-13.0 8.0,-13.0 8.0,-14.0 8.0,-15.0 9.0,-15.0 9.0,-14.0 10.0,-14.0 10.0,-15.0 11.0,-15.0 11.0,-14.0 11.0,-13.0 10.0,-13.0 10.0,-12.0 11.0,-12.0 12.0,-12.0 13.0,-12.0 13.0,-13.0 12.0,-13.0 12.0,-14.0 12.0,-15.0 13.0,-15.0 13.0,-14.0 14.0,-14.0 14.0,-15.0 15.0,-15.0 15.0,-14.0 15.0,-13.0 14.0,-13.0 14.0,-12.0 15.0,-12.0 15.0,-11.0 15.0,-10.0 14.0,-10.0 14.0,-11.0 13.0,-11.0 12.0,-11.0 12.0,-10.0 13.0,-10.0 13.0,-9.0 12.0,-9.0 12.0,-8.0 13.0,-8.0 14.0,-8.0 14.0,-9.0 15.0,-9.0 15.0,-8.0 15.0,-7.0 14.0,-7.0 14.0,-6.0 15.0,-6.0 15.0,-5.0 15.0,-4.0 14.0,-4.0 14.0,-5.0 13.0,-5.0 13.0,-4.0 12.0,-4.0 12.0,-5.0 12.0,-6.0 13.0,-6.0 13.0,-7.0 12.0,-7.0 11.0,-7.0 11.0,-6.0 10.0,-6.0 10.0,-7.0 9.0,-7.0 8.0,-7.0 8.0,-6.0 9.0,-6.0 9.0,-5.0 8.0,-5.0 8.0,-4.0 9.0,-4.0 10.0,-4.0 10.0,-5.0 11.0,-5.0 11.0,-4.0 11.0,-3.0 11.0,-2.0 10.0,-2.0 10.0,-3.0 9.0,-3.0 8.0,-3.0 8.0,-2.0 9.0,-2.0 9.0,-1.0 8.0,-1.0 8.0,1.11022302463e-16 9.0,1.11022302463e-16 10.0,1.11022302463e-16 10.0,-1.0 11.0,-1.0 11.0,1.11022302463e-16 12.0,1.11022302463e-16 13.0,1.11022302463e-16 13.0,-1.0 12.0,-1.0 12.0,-2.0 12.0,-3.0 13.0,-3.0 13.0,-2.0 14.0,-2.0 14.0,-3.0 15.0,-3.0 15.0,-2.0 15.0,-1.0 14.0,-1.0 14.0,1.11022302463e-16 16.0,1.11022302463e-16 16.0,1.11022302463e-16 16.0,-15.0 15.9951847267,-15.0980171403 15.9807852804,-15.195090322 15.9569403357,-15.2902846773 15.9238795325,-15.3826834324 15.8819212643,-15.4713967368 15.8314696123,-15.555570233 15.7730104534,-15.6343932842 15.7071067812,-15.7071067812 15.6343932842,-15.7730104534 15.555570233,-15.8314696123 15.4713967368,-15.8819212643 15.3826834324,-15.9238795325 15.2902846773,-15.9569403357 15.195090322,-15.9807852804 15.0980171403,-15.9951847267 15.0,-16.0 -2.22044604925e-16,-16.0 -0.0980171403296,-15.9951847267 -0.195090322016,-15.9807852804 -0.290284677254,-15.9569403357 -0.382683432365,-15.9238795325 -0.471396736826,-15.8819212643 -0.55557023302,-15.8314696123 -0.634393284164,-15.7730104534 -0.707106781187,-15.7071067812 -0.773010453363,-15.6343932842 -0.831469612303,-15.555570233 -0.881921264348,-15.4713967368 -0.923879532511,-15.3826834324 -0.956940335732,-15.2902846773 -0.980785280403,-15.195090322 -0.995184726672,-15.0980171403 -1.0,-15.0 -1.0,-15.0 -1.0,1.11022302463e-16 -0.995184726672,0.0980171403296 -0.980785280403,0.195090322016 -0.956940335732,0.290284677254 -0.923879532511,0.382683432365 -0.881921264348,0.471396736826 -0.831469612303,0.55557023302 -0.773010453363,0.634393284164 -0.707106781187,0.707106781187 -0.634393284164,0.773010453363 -0.55557023302,0.831469612303 -0.471396736826,0.881921264348 -0.382683432365,0.923879532511 -0.290284677254,0.956940335732 -0.195090322016,0.980785280403 -0.0980171403296,0.995184726672 -2.22044604925e-16,1.0 15.0,1.0 15.0980171403,0.995184726672 15.195090322,0.980785280403 15.2902846773,0.956940335732 15.3826834324,0.923879532511 15.4713967368,0.881921264348 15.555570233,0.831469612303 15.6343932842,0.773010453363 15.7071067812,0.707106781187 15.7730104534,0.634393284164 15.8314696123,0.55557023302 15.8819212643,0.471396736826 15.9238795325,0.382683432365 15.9569403357,0.290284677254 15.9807852804,0.195090322016 15.9951847267,0.0980171403296 16.0,1.11022302463e-16" opacity="0.8" />
</svg>
