<svg xmlns="http://www.w3.org/2000/svg"
viewBox="-2.0 -2.0 30.0 30.0" width="4in" height="4in">
<polyline fill="none" stroke="red" stroke-width="0.1" points="-1.0,0.0 0.0,0.0 1.0,0.0 2.0,0.0 2.0,1.0 1.0,1.0 0.0,1.0 6.12323399574e-17,2.0 1.0,2.0 2.0,2.0 3.0,2.0 4.0,2.0 5.0,2.0 5.0,1.0 4.0,1.0 3.0,1.0 3.0,0.0 4.0,0.0 5.0,0.0 6.0,0.0 7.0,0.0 8.0,0.0 8.0,1.0 7.0,1.0 6.0,1.0 6.0,2.0 7.0,2.0 8.0,2.0 8.0,3.0 7.0,3.0 6.0,3.0 6.0,4.0 7.0,4.0 8.0,4.0 8.0,5.0 7.0,5.0 6.0,5.0 5.0,5.0 4.0,5.0 3.0,5.0 3.0,4.0 4.0,4.0 5.0,4.0 5.0,3.0 4.0,3.0 3.0,3.0 2.0,3.0 1.0,3.0 0.0,3.0 6.12323399574e-17,4.0 1.0,4.0 2.0,4.0 2.0,5.0 1.0,5.0 0.0,5.0 6.12323399574e-17,6.0 1.0,6.0 2.0,6.0 2.0,7.0 1.0,7.0 0.0,7.0 6.12323399574e-17,8.0 1.0,8.0 2.0,8.0 3.0,8.0 4.0,8.0 5.0,8.0 5.0,7.0 4.0,7.0 3.0,7.0 3.0,6.0 4.0,6.0 5.0,6.0 6.0,6.0 7.0,6.0 8.0,6.0 8.0,7.0 7.0,7.0 6.0,7.0 6.0,8.0 7.0,8.0 8.0,8.0 9.0,8.0 10.0,8.0 11.0,8.0 11.0,7.0 10.0,7.0 9.0,7.0 9.0,6.0 10.0,6.0 11.0,6.0 12.0,6.0 13.0,6.0 14.0,6.0 14.0,7.0 13.0,7.0 12.0,7.0 12.0,8.0 13.0,8.0 14.0,8.0 15.0,8.0 16.0,8.0 17.0,8.0 17.0,7.0 16.0,7.0 15.0,7.0 15.0,6.0 16.0,6.0 17.0,6.0 17.0,5.0 16.0,5.0 15.0,5.0 15.0,4.0 16.0,4.0 17.0,4.0 17.0,3.0 16.0,3.0 15.0,3.0 14.0,3.0 13.0,3.0 12.0,3.0 12.0,4.0 13.0,4.0 14.0,4.0 14.0,5.0 13.0,5.0 12.0,5.0 11.0,5.0 10.0,5.0 9.0,5.0 9.0,4.0 10.0,4.0 11.0,4.0 11.0,3.0 10.0,3.0 9.0,3.0 9.0,2.0 10.0,2.0 11.0,2.0 11.0,1.0 10.0,1.0 9.0,1.0 9.0,-2.22044604925e-16 10.0,-2.22044604925e-16 11.0,-2.22044604925e-16 12.0,-2.22044604925e-16 13.0,-2.22044604925e-16 14.0,-2.22044604925e-16 14.0,1.0 13.0,1.0 12.0,1.0 12.0,2.0 13.0,2.0 14.0,2.0 15.0,2.0 16.0,2.0 17.0,2.0 17.0,1.0 16.0,1.0 15.0,1.0 15.0,-2.22044604925e-16 16.0,-2.22044604925e-16 17.0,-2.22044604925e-16 18.0,-2.22044604925e-16 19.0,-2.22044604925e-16 20.0,-2.22044604925e-16 20.0,1.0 19.0,1.0 18.0,1.0 18.0,2.0 19.0,2.0 20.0,2.0 21.0,2.0 22.0,2.0 23.0,2.0 23.0,1.0 22.0,1.0 21.0,1.0 21.0,-2.22044604925e-16 22.0,-2.22044604925e-16 23.0,-2.22044604925e-16 24.0,-2.22044604925e-16 25.0,-2.22044604925e-16 26.0,-2.22044604925e-16 26.0,1.0 25.0,1.0 24.0,1.0 24.0,2.0 25.0,2.0 26.0,2.0 26.0,3.0 25.0,3.0 24.0,3.0 24.0,4.0 25.0,4.0 26.0,4.0 26.0,5.0 25.0,5.0 24.0,5.0 23.0,5.0 22.0,5.0 21.0,5.0 21.0,4.0 22.0,4.0 23.0,4.0 23.0,3.0 22.0,3.0 21.0,3.0 20.0,3.0 19.0,3.0 18.0,3.0 18.0,4.0 19.0,4.0 20.0,4.0 20.0,5.0 19.0,5.0 18.0,5.0 18.0,6.0 19.0,6.0 20.0,6.0 20.0,7.0 19.0,7.0 18.0,7.0 18.0,8.0 19.0,8.0 20.0,8.0 21.0,8.0 22.0,8.0 23.0,8.0 23.0,7.0 22.0,7.0 21.0,7.0 21.0,6.0 22.0,6.0 23.0,6.0 24.0,6.0 25.0,6.0 26.0,6.0 26.0,7.0 25.0,7.0 24.0,7.0 24.0,8.0 25.0,8.0 26.0,8.0 26.0,9.0 25.0,9.0 24.0,9.0 24.0,10.0 25.0,10.0 26.0,10.0 26.0,11.0 25.0,11.0 24.0,11.0 23.0,11.0 22.0,11.0 21.0,11.0 21.0,10.0 22.0,10.0 23.0,10.0 23.0,9.0 22.0,9.0 21.0,9.0 20.0,9.0 19.0,9.0 18.0,9.0 18.0,10.0 19.0,10.0 20.0,10.0 20.0,11.0 19.0,11.0 18.0,11.0 18.0,12.0 19.0,12.0 20.0,12.0 20.0,13.0 19.0,13.0 18.0,13.0 18.0,14.0 19.0,14.0 20.0,14.0 21.0,14.0 22.0,14.0 23.0,14.0 23.0,13.0 22.0,13.0 21.0,13.0 21.0,12.0 22.0,12.0 23.0,12.0 24.0,12.0 25.0,12.0 26.0,12.0 26.0,13.0 25.0,13.0 24.0,13.0 24.0,14.0 25.0,14.0 26.0,14.0 26.0,15.0 25.0,15.0 24.0,15.0 24.0,16.0 25.0,16.0 26.0,16.0 26.0,17.0 25.0,17.0 24.0,17.0 23.0,17.0 22.0,17.0 21.0,17.0 21.0,16.0 22.0,16.0 23.0,16.0 23.0,15.0 22.0,15.0 21.0,15.0 20.0,15.0 19.0,15.0 18.0,15.0 18.0,16.0 19.0,16.0 20.0,16.0 20.0,17.0 19.0,17.0 18.0,17.0 17.0,17.0 16.0,17.0 15.0,17.0 15.0,16.0 16.0,16.0 17.0,16.0 17.0,15.0 16.0,15.0 15.0,15.0 14.0,15.0 13.0,15.0 12.0,15.0 12.0,16.0 13.0,16.0 14.0,16.0 14.0,17.0 13.0,17.0 12.0,17.0 11.0,17.0 10.0,17.0 9.0,17.0 9.0,16.0 10.0,16.0 11.0,16.0 11.0,15.0 10.0,15.0 9.0,15.0 9.0,14.0 10.0,14.0 11.0,14.0 11.0,13.0 10.0,13.0 9.0,13.0 9.0,12.0 10.0,12.0 11.0,12.0 12.0,12.0 13.0,12.0 14.0,12.0 14.0,13.0 13.0,13.0 12.0,13.0 12.0,14.0 13.0,14.0 14.0,14.0 15.0,14.0 16.0,14.0 17.0,14.0 17.0,13.0 16.0,13.0 15.0,13.0 15.0,12.0 16.0,12.0 17.0,12.0 17.0,11.0 16.0,11.0 15.0,11.0 15.0,10.0 16.0,10.0 17.0,10.0 17.0,9.0 16.0,9.0 15.0,9.0 14.0,9.0 13.0,9.0 12.0,9.0 12.0,10.0 13.0,10.0 14.0,10.0 14.0,11.0 13.0,11.0 12.0,11.0 11.0,11.0 10.0,11.0 9.0,11.0 9.0,10.0 10.0,10.0 11.0,10.0 11.0,9.0 10.0,9.0 9.0,9.0 8.0,9.0 7.0,9.0 6.0,9.0 6.0,10.0 7.0,10.0 8.0,10.0 8.0,11.0 7.0,11.0 6.0,11.0 5.0,11.0 4.0,11.0 3.0,11.0 3.0,10.0 4.0,10.0 5.0,10.0 5.0,9.0 4.0,9.0 3.0,9.0 2.0,9.0 1.0,9.0 0.0,9.0 6.12323399574e-17,10.0 1.0,10.0 2.0,10.0 2.0,11.0 1.0,11.0 0.0,11.0 6.12323399574e-17,12.0 1.0,12.0 2.0,12.0 2.0,13.0 1.0,13.0 0.0,13.0 6.12323399574e-17,14.0 1.0,14.0 2.0,14.0 3.0,14.0 4.0,14.0 5.0,14.0 5.0,13.0 4.0,13.0 3.0,13.0 3.0,12.0 4.0,12.0 5.0,12.0 6.0,12.0 7.0,12.0 8.0,12.0 8.0,13.0 7.0,13.0 6.0,13.0 6.0,14.0 7.0,14.0 8.0,14.0 8.0,15.0 7.0,15.0 6.0,15.0 6.0,16.0 7.0,16.0 8.0,16.0 8.0,17.0 7.0,17.0 6.0,17.0 5.0,17.0 4.0,17.0 3.0,17.0 3.0,16.0 4.0,16.0 5.0,16.0 5.0,15.0 4.0,15.0 3.0,15.0 2.0,15.0 1.0,15.0 0.0,15.0 6.12323399574e-17,16.0 1.0,16.0 2.0,16.0 2.0,17.0 1.0,17.0 0.0,17.0 6.12323399574e-17,18.0 1.0,18.0 2.0,18.0 2.0,19.0 1.0,19.0 0.0,19.0 6.12323399574e-17,20.0 1.0,20.0 2.0,20.0 3.0,20.0 4.0,20.0 5.0,20.0 5.0,19.0 4.0,19.0 3.0,19.0 3.0,18.0 4.0,18.0 5.0,18.0 6.0,18.0 7.0,18.0 8.0,18.0 8.0,19.0 7.0,19.0 6.0,19.0 6.0,20.0 7.0,20.0 8.0,20.0 8.0,21.0 7.0,21.0 6.0,21.0 6.0,22.0 7.0,22.0 8.0,22.0 8.0,23.0 7.0,23.0 6.0,23.0 5.0,23.0 4.0,23.0 3.0,23.0 3.0,22.0 4.0,22.0 5.0,22.0 5.0,21.0 4.0,21.0 3.0,21.0 2.0,21.0 1.0,21.0 0.0,21.0 6.12323399574e-17,22.0 1.0,22.0 2.0,22.0 2.0,23.0 1.0,23.0 0.0,23.0 6.12323399574e-17,24.0 1.0,24.0 2.0,24.0 2.0,25.0 1.0,25.0 0.0,25.0 6.12323399574e-17,26.0 1.0,26.0 2.0,26.0 3.0,26.0 4.0,26.0 5.0,26.0 5.0,25.0 4.0,25.0 3.0,25.0 3.0,24.0 4.0,24.0 5.0,24.0 6.0,24.0 7.0,24.0 8.0,24.0 8.0,25.0 7.0,25.0 6.0,25.0 6.0,26.0 7.0,26.0 8.0,26.0 9.0,26.0 10.0,26.0 11.0,26.0 11.0,25.0 10.0,25.0 9.0,25.0 9.0,24.0 10.0,24.0 11.0,24.0 12.0,24.0 13.0,24.0 14.0,24.0 14.0,25.0 13.0,25.0 12.0,25.0 12.0,26.0 13.0,26.0 14.0,26.0 15.0,26.0 16.0,26.0 17.0,26.0 17.0,25.0 16.0,25.0 15.0,25.0 15.0,24.0 16.0,24.0 17.0,24.0 17.0,23.0 16.0,23.0 15.0,23.0 15.0,22.0 16.0,22.0 17.0,22.0 17.0,21.0 16.0,21.0 15.0,21.0 14.0,21.0 13.0,21.0 12.0,21.0 12.0,22.0 13.0,22.0 14.0,22.0 14.0,23.0 13.0,23.0 12.0,23.0 11.0,23.0 10.0,23.0 9.0,23.0 9.0,22.0 10.0,22.0 11.0,22.0 11.0,21.0 10.0,21.0 9.0,21.0 9.0,20.0 10.0,20.0 11.0,20.0 11.0,19.0 10.0,19.0 9.0,19.0 9.0,18.0 10.0,18.0 11.0,18.0 12.0,18.0 13.0,18.0 14.0,18.0 14.0,19.0 13.0,19.0 12.0,19.0 12.0,20.0 13.0,20.0 14.0,20.0 15.0,20.0 16.0,20.0 17.0,20.0 17.0,19.0 16.0,19.0 15.0,19.0 15.0,18.0 16.0,18.0 17.0,18.0 18.0,18.0 19.0,18.0 20.0,18.0 20.0,19.0 19.0,19.0 18.0,19.0 18.0,20.0 19.0,20.0 20.0,20.0 21.0,20.0 22.0,20.0 23.0,20.0 23.0,19.0 22.0,19.0 21.0,19.0 21.0,18.0 22.0,18.0 23.0,18.0 24.0,18.0 25.0,18.0 26.0,18.0 26.0,19.0 25.0,19.0 24.0,19.0 24.0,20.0 25.0,20.0 26.0,20.0 26.0,21.0 25.0,21.0 24.0,21.0 24.0,22.0 25.0,22.0 26.0,22.0 26.0,23.0 25.0,23.0 24.0,23.0 23.0,23.0 22.0,23.0 21.0,23.0 21.0,22.0 22.0,22.0 23.0,22.0 23.0,21.0 22.0,21.0 21.0,21.0 20.0,21.0 19.0,21.0 18.0,21.0 18.0,22.0 19.0,22.0 20.0,22.0 20.0,23.0 19.0,23.0 18.0,23.0 18.0,24.0 19.0,24.0 20.0,24.0 20.0,25.0 19.0,25.0 18.0,25.0 18.0,26.0 19.0,26.0 20.0,26.0 21.0,26.0 22.0,26.0 23.0,26.0 23.0,25.0 22.0,25.0 21.0,25.0 21.0,24.0 22.0,24.0 23.0,24.0 24.0,24.0 25.0,24.0 26.0,24.0 26.0,25.0 25.0,25.0 24.0,25.0 24.0,26.0 25.0,26.0 27.0,26.0 27.0,26.0 27.0,-2.22044604925e-16 26.9951847267,-0.0980171403296 26.9807852804,-0.195090322016 26.9569403357,-0.290284677254 26.9238795325,-0.382683432365 26.8819212643,-0.471396736826 26.8314696123,-0.55557023302 26.7730104534,-0.634393284164 26.7071067812,-0.707106781187 26.6343932842,-0.773010453363 26.555570233,-0.831469612303 26.4713967368,-0.881921264348 26.3826834324,-0.923879532511 26.2902846773,-0.956940335732 26.195090322,-0.980785280403 26.0980171403,-0.995184726672 26.0,-1.0 0.0,-1.0 -0.0980171403296,-0.995184726672 -0.195090322016,-0.980785280403 -0.290284677254,-0.956940335732 -0.382683432365,-0.923879532511 -0.471396736826,-0.881921264348 -0.55557023302,-0.831469612303 -0.634393284164,-0.773010453363 -0.707106781187,-0.707106781187 -0.773010453363,-0.634393284164 -0.831469612303,-0.55557023302 -0.881921264348,-0.471396736826 -0.923879532511,-0.382683432365 -0.956940335732,-0.290284677254 -0.980785280403,-0.195090322016 -0.995184726672,-0.0980171403296 -1.0,-2.22044604925e-16 -1.0,-2.22044604925e-16 -1.0,26.0 -0.995184726672,26.0980171403 -0.980785280403,26.195090322 -0.956940335732,26.2902846773 -0.923879532511,26.3826834324 -0.881921264348,26.4713967368 -0.831469612303,26.555570233 -0.773010453363,26.6343932842 -0.707106781187,26.7071067812 -0.634393284164,26.7730104534 -0.55557023302,26.8314696123 -0.471396736826,26.8819212643 -0.382683432365,26.9238795325 -0.290284677254,26.9569403357 -0.195090322016,26.9807852804 -0.0980171403296,26.9951847267 0.0,27.0 26.0,27.0 26.0980171403,26.9951847267 26.195090322,26.9807852804 26.2902846773,26.9569403357 26.3826834324,26.9238795325 26.4713967368,26.8819212643 26.555570233,26.8314696123 26.6343932842,26.7730104534 26.7071067812,26.7071067812 26.7730104534,26.6343932842 26.8314696123,26.555570233 26.8819212643,26.4713967368 26.9238795325,26.3826834324 26.9569403357,26.2902846773 26.9807852804,26.195090322 26.9951847267,26.0980171403 27.0,26.0" opacity="0.8" />
</svg>
